# xmcd CD database file
#
# Track frame offsets:
#	150
#	18027
#	33007
#	50008
#	66887
#	80413
#	95134
#	109687
#	125172
#	142430
#	157897
#	170516
#
# Disc length: 2492 seconds
#
# Revision: 0
# Processed by: cddbd v1.5.2PL0 Copyright (c) Steve Scherf et al.
# Submitted via: CDex 1.51
#
DISCID=a209ba0c
DTITLE=Jason Blaine - Make My Move
DYEAR=2008
DGENRE=Country
TTITLE0=Good Day To Get Gone
TTITLE1=Rock In My Boot
TTITLE2=Just A Memory
TTITLE3=If You Don't Love Me
TTITLE4=I Wanna Be That Man
TTITLE5=My First Car
TTITLE6=Flirtin' With Me
TTITLE7=Give It To Me
TTITLE8=Make My Move
TTITLE9=The Man I Am
TTITLE10=If Love Was Enough
TTITLE11=Slow Time Down
EXTD=YEAR: 2008
EXTT0=
EXTT1=
EXTT2=
EXTT3=
EXTT4=
EXTT5=
EXTT6=
EXTT7=
EXTT8=
EXTT9=
EXTT10=
EXTT11=
PLAYORDER=
